<?xml version="1.0" encoding="UTF-8"?> <!-- Generator: Adobe Illustrator 21.1.0, SVG Export Plug-In . SVG Version: 6.00 Build 0) --> <svg xmlns="http://www.w3.org/2000/svg" xmlns:xlink="http://www.w3.org/1999/xlink" id="Ebene_1" x="0px" y="0px" viewBox="0 0 193 66" style="enable-background:new 0 0 193 66;" xml:space="preserve"> <style type="text/css"> .st0{fill:#BCC9D2;} .st1{fill:#26446B;} </style> <path class="st0" d="M125.2,0c2.2,0.2,4.8,0.1,7.1,0.2c1.7,0.1,3.5,0.2,5.2,0.3c0.7-0.3,2.1,0.1,2.8,0.1c2.1,0.2,4.1,0.5,6.1,0.7 c1.9,0.2,3.8,0.2,5.6,0.5c2.4,0.4,4.8,0.9,7.3,1.3c0.5,0.2,1.1,0.5,1.6,0.7c2.6,0.8,5.2,1.6,7.8,2.3c2,0.6,4,1.1,6,1.7 c1.2,0.6,2.4,1.3,3.6,1.9c0.9,0.4,1.9,0.4,2.9,0.6c1.2,0.3,2.4,1.3,3.4,1.9c1.4,1,2.4,2.4,3.5,3.6c0.5,0.5,1.2,0.6,1.5,1.2 c1.1,1.9,1.5,4.3,1.5,6.7h-0.2c-0.1-1.1-0.5-2.2-0.5-3.3c-0.4-0.1-0.7-0.1-1-0.2c0.1,0.6,0.9,2.9-0.3,2.9c0.2,1.9,0.1,4.3-0.4,6.1 c-0.4,0.9-0.8,1.9-1.1,2.8c-0.4,1.2-0.8,2.3-1.4,3.4c-0.6,1-2.7,3.6-2.7,4.6h0.2v0.2c2.9-0.9,5.3-8.8,6.6-8.8 c-0.1-0.4-0.2-0.7-0.4-1.1c0.2-1.2,0.4-2.5,0.6-3.7c0.1-0.2,0.4-0.5,0.7-0.5c0.1,0.5,0.2,0.9,0.3,1.4c-0.1,2.3-1.9,6.3-3,8.1 c-0.5,0.8-2.4,3.2-2.4,4c0.2,0.2,0.5,0.4,0.5,0.7c-0.7,0.5-0.9,1.3-1.4,1.9c-0.6,0.5-1.1,1.1-1.7,1.6c-0.9,0.9-1.6,1.8-2.5,2.7 c-0.7,0.6-1.5,1.2-2.2,1.8c-0.8,0.5-1.7,0.9-2.5,1.4c-0.8,0.5-1.4,1.4-2.2,1.9c-6.3,3.9-13,7.4-20,10.1c-0.9,0.4-1.7,0.7-2.6,1.1 c-0.7,0.4-1.1,1-2,1.1c-0.6,0.1-1.3-0.1-1.9-0.2c-1.3-0.2-2.9-0.4-4.2-0.3c-2.2,0.2-4.4-0.3-6.6-0.3c-2.8,0-5.5-0.1-8.1,0.2 c-0.6,0.1-1.3,0.3-1.9,0.4c-0.4,0-1.7,0.2-1.7,0.1c-0.6-0.2-1.2-0.9-1.9-0.9c-0.2-0.8,0.2-1.4,0.9-1.7c2.4-1.2,5.1-1.8,7.6-2.7 c2.7-1.1,5.3-2.4,7.9-3.9c1.1-0.4,2.3-0.8,3.4-1.2c0.7-0.5,1.4-1,2.1-1.5c1.2-0.7,3.1-1,3.8-2.4c0-0.1,0.2-0.7,0.2-0.3h0.9 c1-0.7,2-1.3,3-2c0.9-0.7,1.7-1.6,2.5-2.3c2-1.8,4.2-3.5,5.9-5.7c1.2-1.5,1.9-3.4,2.8-5c1.3-2.3,2.5-4.3,3.3-7 c0.3-1,0.1-2.4,0.1-3.5c0-2.5-0.9-5.1-2.3-6.9c-0.5-0.5-1.1-1-1.6-1.5c-6.5-6.5-16.2-8.4-25.2-10.1c-4.5-0.9-9.2-0.9-14-1.3 c-6.3-0.6-13.9-0.4-20.1,0c-11,0.7-21.6,2-31.9,4.4c-3,0.7-6.1,1.7-9.1,2.5c-6.7,1.7-13.4,3.9-19.6,6.6c-2.5,1.1-5.3,2-7.7,3.4 c-1.2,0.7-2.6,2.2-3.6,3.1c-1.2,1.1-1.4,3.1-2.7,4c-1,0.7-2.5,0.7-3.7,1.1c-1.1,0.4-2.1,0.8-3.2,1.2c-2,0.6-4,1-6,1.5 c-1.1,0.4-2.2,0.8-3.4,1.2c-0.7,0.2-1.5,0.3-2.2,0.5c-1.3,0.3-2.3,1.2-3.8,1.2c-0.6,0-0.9-0.2-1.1-0.6c-0.3-1-0.6-1.9-0.9-2.9 C4.6,29.7,0.9,19.8,2,18.3c0.4-0.5,6-1.7,6.9-1.7c1.1-0.8,2.5-0.7,3.8-1c0.2,0,0.3-0.1,0.3,0.1c1.7,1.1,1.2,7.7,3.2,8.3 c1.2,0.4,6.1-1.9,7.2-2.4c7-2.9,14.2-5.5,21.4-8c2.2-0.8,4.6-1.6,6.8-2.3c1.3-0.4,2.7-1.2,4.2-1.2c1.2-0.8,4.7-1.4,6.2-1.8 C64,7.8,66,7.2,68,6.7C70.1,6.1,72.3,5,74.8,5c0.3-0.1,0.7-0.1,1-0.2C76.6,4.4,79.1,4,80.1,4c0.5-0.3,1.5-0.3,2.1-0.3 c0.4-0.1,0.8-0.1,1.2-0.2c0.7-0.4,2-0.5,2.8-0.5c0.5-0.1,1-0.1,1.6-0.2c0.6-0.3,1.6-0.3,2.4-0.3c0.4-0.1,0.8-0.1,1.2-0.2 c0.5-0.1,0.9-0.1,1.4-0.2c0.3-0.1,0.7-0.1,1-0.2c0.5-0.2,1.3-0.2,1.9-0.2c0.5-0.2,1.3-0.2,1.9-0.2c0.5-0.2,1.5-0.2,2.1-0.2 c0.5-0.1,1-0.1,1.6-0.2c0.7-0.3,2.1-0.2,2.9-0.2c0.5-0.2,1.3-0.2,1.9-0.2c0.6-0.3,1.8-0.2,2.6-0.2c0.9-0.4,2.6-0.2,3.6-0.2 c0.8-0.4,2.4-0.2,3.5-0.2c0.5-0.2,1.5-0.2,2.1-0.2C119.9,0.2,123.6,0.5,125.2,0"></path> <g> <path class="st1" d="M53.9,27.8v-0.2c4.1-0.2,8-1.3,8-3.2c0-2.3-4.7-3-9.7-3h-1.4v0H39.6v13.4h11.2h0.1c5.8,0,11.7-1.1,11.7-3.9 C62.6,28.6,57.5,28,53.9,27.8z M46.9,22.6c1,0,1.7-0.1,2.5-0.1c0.5,0,1,0,1.4,0.1v0c2.4,0.2,3.9,0.9,3.9,2.1c0,0.8-0.6,1.6-2.1,2.1 c-0.5,0.2-1.1,0.3-1.7,0.4v0c-1.2,0.2-2.4,0.1-3.9,0.1V22.6z M50.7,33.7L50.7,33.7c-0.5,0-1,0.1-1.4,0.1h-2.4v-5.4 c1.5,0,2.8,0,3.9,0.1v0c2.8,0.3,4.3,1.1,4.3,2.7C55.1,32.6,53,33.5,50.7,33.7z"></path> <path class="st1" d="M82.8,21.3c-0.7,0-1.2,0.1-1.9,0.1c-0.6,0-1.2,0-1.9-0.1L79,21.4v0L65.2,35c0.7,0,1.5,0,2.3,0 c0.8,0,1.5,0,2.3,0c0.9-1.4,2.2-2.6,3.4-4.1H79v0l5.6,0c1.3,1.3,2.3,2.7,3.4,4.1c1.4,0,2.8-0.1,4.2-0.1c1.4,0,2.8,0,4.2,0.1 L82.8,21.3z M79,29.7L79,29.7l-4.4,0l4.4-4.5v0l0.1-0.1l4.4,4.6H79z"></path> <path class="st1" d="M115.7,24c0.5-0.7,1-1.3,1.6-2c-1.1-0.4-4.2-1-7.7-1c-7.4,0-11.2,1.9-11.2,4.1c0,4.8,14.5,3.7,14.5,6.8 c0,1.4-2.7,2-5.7,2c-3.4,0-6-0.8-6.8-2.2h-0.9c-0.3,0.8-0.8,1.7-1.4,2.5c2.3,0.6,5.2,0.8,7.8,0.8c7.5,0,12.9-1.8,12.9-4.4 c0-4.5-14.8-4-14.8-6.7c0-1.2,1.5-2,5.4-2c2.7,0,4.6,0.7,5.6,1.7H115.7z"></path> <path class="st1" d="M124,35.1c1.2,0,2.4-0.1,3.7-0.1c1.2,0,2.4,0,3.7,0.1V21.5c-1.2,0-2.4,0.1-3.7,0.1c-1.2,0-2.4,0-3.7-0.1 C124,21.5,124,35.1,124,35.1z"></path> <path class="st1" d="M155,24c0.5-0.7,1-1.3,1.5-2c-1.1-0.4-4.2-1-7.7-1c-7.4,0-11.3,1.9-11.3,4.1c0,4.8,14.5,3.7,14.5,6.8 c0,1.4-2.7,2-5.7,2c-3.4,0-6-0.8-6.7-2.2h-0.9c-0.3,0.8-0.8,1.7-1.4,2.5c2.3,0.6,5.1,0.8,7.8,0.8c7.6,0,12.9-1.8,12.9-4.4 c0-4.5-14.8-4-14.8-6.7c0-1.2,1.5-2,5.4-2c2.8,0,4.6,0.7,5.6,1.7H155z"></path> </g> <g> <rect x="40.5" y="37.8" class="st1" width="0.9" height="4.2"></rect> <path class="st1" d="M48.3,39.4v-0.3h-0.9V42h0.9v-1.7c0-0.4,0.1-0.6,0.4-0.7c0.4-0.2,0.8-0.2,1.4-0.2c1,0,1.4,0.1,1.4,0.6v2h0.9 v-2c0-0.7-0.6-1-2.3-1C49.4,39.1,48.6,39.1,48.3,39.4"></path> <path class="st1" d="M58,41.1c0,0.3,0,0.6,0.4,0.7c0.3,0.2,0.8,0.2,1.3,0.2c0.7,0,1.1,0,1.4-0.2c0.2-0.1,0.3-0.4,0.3-0.7V41h-0.8 v0.2c0,0.1,0,0.2,0,0.3c0,0.1-0.3,0.2-0.8,0.2c-0.5,0-0.8,0-0.8-0.4v-1.8h2.2v-0.3H59v-0.7H58v0.7h-0.8v0.3H58V41.1z"></path> <path class="st1" d="M70.5,40.3h-1.6v0.4h2.6v-0.3v-0.2c0-0.3-0.1-0.6-0.6-0.9c-0.4-0.2-1.3-0.2-1.9-0.2h0v0.4H69 c0.5,0,1,0,1.2,0.1C70.5,39.7,70.5,40,70.5,40.3 M68.9,42v-0.3H69c0.6,0,1.1,0,1.3-0.1c0.2-0.1,0.2-0.2,0.2-0.4h0.9 c0,0.3-0.1,0.5-0.4,0.7C70.5,42,69.8,42,68.9,42L68.9,42z M68.9,40.3h-1.7c0-0.3,0-0.5,0.3-0.7c0.3-0.2,0.8-0.2,1.3-0.2h0v-0.4 c-0.8,0-1.6,0-2,0.3c-0.4,0.2-0.5,0.6-0.6,1.2c0,0.4,0,0.9,0.5,1.2C67.1,42,68,42,68.9,42v-0.3c-0.5,0-0.9,0-1.2-0.1 c-0.5-0.2-0.5-0.4-0.5-0.8v0v-0.2h1.7V40.3z"></path> <path class="st1" d="M78.3,39.5l0-0.4h-0.9V42h0.9v-1.8c0-0.7,0.6-0.8,1.4-0.8c0.5,0,0.8,0,0.9,0.2c0.1,0.1,0.1,0.2,0.1,0.5h0.8V40 c0-0.2,0-0.4-0.3-0.6c-0.2-0.2-0.6-0.3-1.4-0.3C79.4,39.1,78.7,39.1,78.3,39.5L78.3,39.5L78.3,39.5z"></path> <path class="st1" d="M87.1,39.4v-0.3h-0.9V42h0.9v-1.7c0-0.4,0.1-0.6,0.4-0.7c0.4-0.2,0.8-0.2,1.4-0.2c1,0,1.4,0.1,1.4,0.6v2h0.9 v-2c0-0.7-0.6-1-2.4-1C88.2,39.1,87.4,39.1,87.1,39.4C87.1,39.4,87.1,39.4,87.1,39.4z"></path> <path class="st1" d="M100.9,41.7V42h0.9v-2c0-0.3-0.1-0.6-0.4-0.7c-0.4-0.2-1.2-0.2-2-0.2h0v0.4h0.1c0.9,0,1.3,0,1.5,0.2 c0,0.1,0.1,0.2,0.1,0.4v0.5h0c0-0.1-0.4-0.2-0.7-0.2c-0.2,0-0.6,0-0.9,0v0.4c0.8,0,1.6,0,1.6,0.5c0,0.1,0,0.3-0.2,0.4 c-0.3,0.2-0.8,0.2-1.5,0.2V42C100,42,100.6,42,100.9,41.7 M99.3,39.1c-0.5,0-1.4,0-1.9,0.1c-0.3,0.1-0.5,0.4-0.5,0.7h0.9v-0.1 c0-0.4,0.7-0.4,1.3-0.4h0.1L99.3,39.1L99.3,39.1z M99.3,40.2h-0.1c-1.6,0-2.4,0.1-2.4,0.9v0.1c0,0.7,0.7,0.9,2.4,0.9h0.2v-0.3h-0.1 c-0.7,0-1.2,0-1.3-0.2c-0.1-0.1-0.2-0.2-0.2-0.3c0.1-0.2,0-0.3,0.2-0.5c0.2-0.1,0.8-0.1,1.3-0.1h0.1V40.2z"></path> <path class="st1" d="M107.5,41.1c0,0.3,0,0.6,0.4,0.7c0.3,0.2,0.8,0.2,1.3,0.2c0.7,0,1.2,0,1.5-0.2c0.2-0.1,0.3-0.4,0.3-0.7V41 h-0.8v0.2c0,0.1,0,0.2-0.1,0.3c-0.1,0.1-0.3,0.2-0.8,0.2c-0.5,0-0.8,0-0.8-0.4v-1.8h2.3v-0.3h-2.3v-0.7h-0.9v0.7h-0.8v0.3h0.8 L107.5,41.1L107.5,41.1z"></path> <path class="st1" d="M115.9,42h0.9v-2.9h-0.9V42z M115.9,38.3h0.9v-0.5h-0.9V38.3z"></path> <path class="st1" d="M125.1,39.4c0.4,0,1.1,0,1.4,0.2c0.3,0.2,0.3,0.6,0.3,0.9v0.2c0,0.3,0,0.6-0.3,0.8c-0.3,0.2-0.9,0.2-1.4,0.2 V42c0.6,0,1.5,0,2-0.2c0.6-0.3,0.6-0.8,0.6-1.3c0-0.4,0-1-0.5-1.3c-0.4-0.2-1.2-0.2-2.1-0.2V39.4z M125.1,39.4L125.1,39.4l0-0.4 H125c-0.8,0-1.6,0-2,0.3c-0.4,0.3-0.4,0.8-0.4,1.3c0,0.4,0.1,0.8,0.4,1.1c0.4,0.3,1.3,0.3,2.1,0.3h0.1v-0.3c-0.5,0-1.2,0-1.5-0.2 c-0.2-0.2-0.3-0.5-0.3-0.8v-0.2v-0.1c0-0.3,0-0.7,0.3-0.8c0.3-0.2,0.7-0.2,1.1-0.2L125.1,39.4L125.1,39.4z"></path> <path class="st1" d="M134.2,39.4v-0.3h-0.9V42h0.9v-1.7c0-0.4,0.1-0.6,0.4-0.7c0.4-0.2,0.8-0.2,1.4-0.2c1,0,1.4,0.1,1.4,0.6v2h0.9 v-2c0-0.7-0.6-1-2.3-1C135.3,39.1,134.5,39.1,134.2,39.4"></path> <path class="st1" d="M148.1,41.7V42h0.9v-2c0-0.3-0.1-0.6-0.5-0.7c-0.4-0.2-1.1-0.2-2-0.2h-0.1v0.4h0.1c0.9,0,1.3,0,1.5,0.2 c0.1,0.1,0.1,0.2,0.1,0.4v0.5H148c0-0.1-0.3-0.2-0.7-0.2c-0.3,0-0.6,0-0.9,0h0v0.4c0.8,0,1.6,0,1.6,0.5c0,0.1,0,0.3-0.2,0.4 c-0.2,0.2-0.8,0.2-1.5,0.2V42C147.1,42,147.7,42,148.1,41.7L148.1,41.7L148.1,41.7L148.1,41.7z M146.4,39.1c-0.5,0-1.3,0-1.8,0.1 c-0.3,0.1-0.6,0.4-0.5,0.7h0.9v-0.1c0-0.4,0.7-0.4,1.4-0.4h0.1L146.4,39.1L146.4,39.1z M146.4,40.2h-0.1c-1.5,0-2.4,0.1-2.4,0.9 c0,0,0,0,0,0.1c0,0.7,0.7,0.9,2.4,0.9h0.2v-0.3h-0.1c-0.8,0-1.2,0-1.4-0.2c-0.1-0.1-0.1-0.2-0.2-0.3c0.1-0.2,0-0.3,0.2-0.5 c0.2-0.1,0.7-0.1,1.3-0.1h0.1L146.4,40.2L146.4,40.2z"></path> <rect x="154.6" y="37.8" class="st1" width="0.9" height="4.2"></rect> </g> <path class="st1" d="M160.6,62.7c0-1.5,1.1-2.7,2.5-2.7c1.4,0,2.5,1.2,2.5,2.7c0,1.6-1.1,2.7-2.5,2.7 C161.7,65.5,160.6,64.3,160.6,62.7 M163.1,66c1.7,0,3.1-1.4,3.1-3.3c0-1.9-1.4-3.3-3.1-3.3c-1.7,0-3.2,1.4-3.2,3.3 C159.9,64.6,161.4,66,163.1,66 M162.4,63h0.6l0.9,1.6h0.6l-1-1.7c0.5-0.1,0.9-0.4,0.9-1c0-0.7-0.4-1.1-1.3-1.1h-1.4v3.8h0.5 L162.4,63L162.4,63z M162.4,62.5v-1.2h0.7c0.4,0,0.8,0.1,0.8,0.6c0,0.6-0.4,0.6-0.9,0.6H162.4z"></path> </svg> 